<svg width="58" height="49" viewBox="0 0 58 49" fill="none" xmlns="http://www.w3.org/2000/svg">
<path d="M18.9009 17.9677C19.6091 17.9677 20.1833 17.3936 20.1833 16.6853C20.1833 15.977 19.6091 15.4028 18.9009 15.4028C18.1926 15.4028 17.6184 15.977 17.6184 16.6853C17.6184 17.3936 18.1926 17.9677 18.9009 17.9677Z" fill="#040404"/>
<path d="M24.057 21.8515C24.7649 21.8515 25.3388 21.2776 25.3388 20.5697C25.3388 19.8617 24.7649 19.2878 24.057 19.2878C23.349 19.2878 22.7751 19.8617 22.7751 20.5697C22.7751 21.2776 23.349 21.8515 24.057 21.8515Z" fill="#040404"/>
<path d="M35.1699 21.8521C35.8782 21.8521 36.4524 21.2766 36.4524 20.5697C36.4524 19.8627 35.8762 19.2878 35.1699 19.2878C34.4636 19.2878 33.8894 19.8633 33.8894 20.5697C33.8894 21.2773 34.4636 21.8521 35.1699 21.8521Z" fill="#040404"/>
<path d="M29.6013 17.9677C30.3096 17.9677 30.8838 17.3936 30.8838 16.6853C30.8838 15.977 30.3096 15.4028 29.6013 15.4028C28.893 15.4028 28.3188 15.977 28.3188 16.6853C28.3188 17.3936 28.893 17.9677 29.6013 17.9677Z" fill="#040404"/>
<path d="M40.3004 17.9687C41.0086 17.9687 41.5835 17.3932 41.5835 16.6856C41.5835 15.978 41.0073 15.4038 40.3004 15.4038C39.5934 15.4038 39.0186 15.9793 39.0186 16.6856C39.0186 17.3926 39.5934 17.9687 40.3004 17.9687Z" fill="#040404"/>
<path d="M20.6925 26.0603C21.3193 26.0603 21.8274 25.5522 21.8274 24.9254C21.8274 24.2986 21.3193 23.7905 20.6925 23.7905C20.0657 23.7905 19.5576 24.2986 19.5576 24.9254C19.5576 25.5522 20.0657 26.0603 20.6925 26.0603Z" fill="#040404"/>
<path d="M25.2938 30.2685C25.9206 30.2685 26.4287 29.7604 26.4287 29.1337C26.4287 28.5069 25.9206 27.9988 25.2938 27.9988C24.667 27.9988 24.1589 28.5069 24.1589 29.1337C24.1589 29.7604 24.667 30.2685 25.2938 30.2685Z" fill="#040404"/>
<path d="M33.9274 30.2686C34.5544 30.2686 35.0635 29.7601 35.0635 29.1337C35.0635 28.5073 34.5544 27.9995 33.9274 27.9995C33.301 27.9995 32.7925 28.5073 32.7925 29.1337C32.7925 29.7601 33.3016 30.2686 33.9274 30.2686Z" fill="#040404"/>
<path d="M29.6012 26.0603C30.228 26.0603 30.7361 25.5522 30.7361 24.9254C30.7361 24.2986 30.228 23.7905 29.6012 23.7905C28.9744 23.7905 28.4663 24.2986 28.4663 24.9254C28.4663 25.5522 28.9744 26.0603 29.6012 26.0603Z" fill="#040404"/>
<path d="M38.5089 26.0603C39.1357 26.0603 39.6438 25.5522 39.6438 24.9254C39.6438 24.2986 39.1357 23.7905 38.5089 23.7905C37.8821 23.7905 37.374 24.2986 37.374 24.9254C37.374 25.5522 37.8821 26.0603 38.5089 26.0603Z" fill="#040404"/>
<path d="M21.2887 34.31C21.9155 34.31 22.4236 33.8019 22.4236 33.1752C22.4236 32.5484 21.9155 32.0403 21.2887 32.0403C20.6619 32.0403 20.1538 32.5484 20.1538 33.1752C20.1538 33.8019 20.6619 34.31 21.2887 34.31Z" fill="#040404"/>
<path d="M25.2938 37.3284C25.9206 37.3284 26.4287 36.8202 26.4287 36.1935C26.4287 35.5667 25.9206 35.0586 25.2938 35.0586C24.667 35.0586 24.1589 35.5667 24.1589 36.1935C24.1589 36.8202 24.667 37.3284 25.2938 37.3284Z" fill="#040404"/>
<path d="M33.9274 37.3285C34.5544 37.3285 35.0635 36.8194 35.0635 36.193C35.0635 35.5672 34.5544 35.0581 33.9274 35.0581C33.301 35.0581 32.7925 35.5672 32.7925 36.193C32.7931 36.8194 33.3016 37.3285 33.9274 37.3285Z" fill="#040404"/>
<path d="M29.6012 34.31C30.228 34.31 30.7361 33.8019 30.7361 33.1752C30.7361 32.5484 30.228 32.0403 29.6012 32.0403C28.9744 32.0403 28.4663 32.5484 28.4663 33.1752C28.4663 33.8019 28.9744 34.31 29.6012 34.31Z" fill="#040404"/>
<path d="M37.9134 34.31C38.5402 34.31 39.0483 33.8019 39.0483 33.1752C39.0483 32.5484 38.5402 32.0403 37.9134 32.0403C37.2867 32.0403 36.7786 32.5484 36.7786 33.1752C36.7786 33.8019 37.2867 34.31 37.9134 34.31Z" fill="#040404"/>
<path d="M21.2884 40.9349C21.9155 40.9349 22.4239 40.4265 22.4239 39.7993C22.4239 39.1722 21.9155 38.6638 21.2884 38.6638C20.6612 38.6638 20.1528 39.1722 20.1528 39.7993C20.1528 40.4265 20.6612 40.9349 21.2884 40.9349Z" fill="#040404"/>
<path d="M25.2939 43.9523C25.9214 43.9523 26.43 43.4436 26.43 42.8161C26.43 42.1886 25.9214 41.6799 25.2939 41.6799C24.6664 41.6799 24.1577 42.1886 24.1577 42.8161C24.1577 43.4436 24.6664 43.9523 25.2939 43.9523Z" fill="#040404"/>
<path d="M33.9274 43.9522C34.5544 43.9522 35.0635 43.4424 35.0635 42.816C35.0635 42.1903 34.5544 41.6812 33.9274 41.6812C33.301 41.6812 32.7925 42.1903 32.7925 42.816C32.7931 43.4424 33.3016 43.9522 33.9274 43.9522Z" fill="#040404"/>
<path d="M29.6013 40.9349C30.2285 40.9349 30.7369 40.4265 30.7369 39.7993C30.7369 39.1722 30.2285 38.6638 29.6013 38.6638C28.9742 38.6638 28.4658 39.1722 28.4658 39.7993C28.4658 40.4265 28.9742 40.9349 29.6013 40.9349Z" fill="#040404"/>
<path d="M37.9134 40.9349C38.5405 40.9349 39.0489 40.4265 39.0489 39.7993C39.0489 39.1722 38.5405 38.6638 37.9134 38.6638C37.2862 38.6638 36.7778 39.1722 36.7778 39.7993C36.7778 40.4265 37.2862 40.9349 37.9134 40.9349Z" fill="#040404"/>
<path d="M57.4228 17.3293L54.5763 14.8178C54.0769 14.377 53.1946 13.8563 52.5682 13.6308L46.7134 11.526C46.1463 11.323 45.4548 11.3952 44.8909 11.6742C44.3225 11.343 43.4782 11.013 42.8795 10.8957L40.0407 10.3415C40.0491 10.3099 40.0646 10.2816 40.0684 10.248C40.1812 9.27622 40.3004 8.79675 40.5395 8.22705C41.6809 8.05047 44.0331 7.38347 44.4604 4.89911C44.635 3.88217 44.4623 2.97736 43.9603 2.28071C43.4415 1.56021 42.5741 1.07365 41.5172 0.911898C39.6979 0.62834 38.0449 1.81091 37.4997 3.11205C37.3663 3.42977 37.5158 3.79452 37.8335 3.92728C38.148 4.05939 38.5166 3.91181 38.6494 3.59281C39.0019 2.75245 40.1219 1.9572 41.3296 2.1428C42.0521 2.25364 42.6282 2.56105 42.9504 3.00894C43.2572 3.43363 43.3519 3.99882 43.2333 4.68709C42.9111 6.56179 40.903 6.95169 40.0536 7.03224C39.8319 7.05415 39.6392 7.19078 39.5471 7.39185C39.1308 8.29794 38.9697 8.90566 38.8317 10.1037L36.7734 9.70156C36.1154 9.57202 35.3388 9.81756 34.8123 10.2655C33.1876 9.56364 31.5881 9.15957 30.0021 9.05711C29.9905 8.32888 30.0427 7.8913 30.171 7.37831C31.273 7.03031 33.4957 6.0153 33.5421 3.49485C33.5601 2.46309 33.2527 1.59501 32.6508 0.982142C32.0276 0.348648 31.0977 0 30.0298 0C28.188 0 26.7328 1.41457 26.3913 2.78338C26.3081 3.11721 26.5111 3.4549 26.845 3.53803C27.1775 3.62181 27.5165 3.41881 27.6003 3.08498C27.8219 2.2008 28.8131 1.24572 30.0298 1.24572C30.7619 1.24572 31.3761 1.46226 31.7621 1.85537C32.1295 2.22915 32.3099 2.77371 32.2964 3.4723C32.2609 5.37407 30.3353 6.06428 29.5091 6.27308C29.2939 6.32721 29.1244 6.49219 29.0625 6.70615C28.8247 7.53749 28.7435 8.11943 28.7551 9.04228C27.0312 9.10286 25.317 9.51789 23.5931 10.2906C23.0665 9.82722 22.2758 9.57202 21.6043 9.70349L19.8971 10.0367C19.823 9.37611 19.8308 8.95206 19.901 8.4539C20.9598 7.99247 23.064 6.74997 22.8455 4.23791C22.7559 3.21065 22.3589 2.37931 21.6971 1.83346C21.0127 1.26763 20.0505 1.01565 18.9865 1.13037C17.155 1.32306 15.8564 2.88327 15.6605 4.2798C15.6122 4.62071 15.85 4.9352 16.1909 4.98289C16.5286 5.03122 16.847 4.79407 16.894 4.45251C17.021 3.54963 17.9071 2.49596 19.1167 2.36836C19.8437 2.29167 20.4791 2.44311 20.9038 2.79369C21.3085 3.12752 21.5437 3.64952 21.6043 4.34553C21.7693 6.24086 19.9261 7.12891 19.1264 7.42278C18.9176 7.49947 18.7661 7.6812 18.7268 7.89967C18.5767 8.75744 18.5573 9.34582 18.6688 10.2758L15.4968 10.8957C14.8434 11.0233 13.8941 11.4048 13.3334 11.7644L13.2703 11.805C12.7534 11.5692 12.1425 11.5034 11.6243 11.6633L5.6767 13.489C5.04063 13.6843 4.13453 14.1637 3.61575 14.58L0.653851 16.9555C-0.0537555 17.5232 -0.211646 18.5937 0.301337 19.3412L2.99127 23.2647C3.48557 23.9852 4.51153 24.3048 5.3287 23.991L6.5364 23.5257C6.63693 23.4863 6.74197 23.4889 6.83155 23.5334C6.92049 23.5766 6.98622 23.6584 7.0178 23.7622C7.03971 23.835 9.2012 31.1424 9.76187 36.463C10.3142 41.7043 8.95051 46.2058 8.93633 46.2509C8.79519 46.7072 8.86157 47.1725 9.11677 47.5269C9.37198 47.8814 9.7928 48.0915 10.2691 48.1024C10.2852 48.1024 10.7253 48.1134 11.4909 48.1134C13.5822 48.1134 18.1011 48.0425 23.0305 47.5231C25.1069 47.3046 27.3915 46.9791 29.8178 46.5583C30.3121 46.5557 30.8 46.548 31.2814 46.5377C32.0779 46.6898 32.8641 46.8754 33.631 46.9933C40.3243 48.0199 46.2919 48.0715 46.3512 48.0715C46.3641 48.0715 46.3763 48.0715 46.3905 48.0715C46.8455 48.0715 47.2605 47.8446 47.5331 47.5173C47.8147 47.1809 47.9211 46.702 47.825 46.2413C47.8141 46.1878 46.723 40.8453 47.4062 36.3979C48.0983 31.8887 50.7399 23.9117 50.7663 23.8311C50.8082 23.7035 50.8881 23.6423 50.9481 23.6165C51.0093 23.5901 51.1059 23.5701 51.229 23.6249L53.0554 24.4485C53.0625 24.4511 53.0702 24.4498 53.0773 24.453C53.1334 24.4756 53.1901 24.4865 53.25 24.4923C53.2668 24.4943 53.2855 24.502 53.3042 24.502C53.3061 24.502 53.3087 24.5033 53.3113 24.5033C53.3293 24.5033 53.348 24.4923 53.366 24.491C53.4292 24.4846 53.4917 24.4756 53.551 24.4511C53.5793 24.4388 53.6019 24.4189 53.6277 24.4034C53.676 24.3744 53.7211 24.3435 53.7604 24.3022C53.7701 24.2932 53.7811 24.2893 53.7894 24.2803L57.6052 19.7221C58.1955 19.0139 58.115 17.9409 57.4228 17.3293ZM33.921 11.2386C33.129 12.0119 31.5108 13.2319 29.1882 13.2319C26.8997 13.2319 25.2847 12.0312 24.4811 11.2573C27.6402 9.94 30.6749 9.93356 33.921 11.2386ZM15.7353 12.1189L21.8427 10.926C22.2043 10.8551 22.6895 11.0684 22.8848 11.341C22.9763 11.4693 25.1707 14.4782 29.1882 14.4782C33.207 14.4782 35.402 11.4693 35.4928 11.341C35.6881 11.0684 36.176 10.8532 36.5349 10.926L42.6424 12.1189C43.138 12.2156 43.9461 12.5404 44.3714 12.8136L47.5647 14.8642C47.7761 14.9996 47.8444 15.2941 47.7136 15.5081L45.1873 19.6776C45.0326 19.9329 44.5905 20.1081 44.3051 20.0269L43.4028 19.7756C43.2572 19.735 43.109 19.7144 42.9614 19.7144C42.1951 19.7144 41.5442 20.2705 41.4134 21.0368C41.3541 21.3803 39.9795 29.501 39.9795 34.172C39.9795 38.899 41.8819 44.0462 41.9631 44.2628C41.9947 44.3479 41.996 44.4207 41.9663 44.4703C41.9361 44.5186 41.8716 44.5521 41.782 44.5644C41.7227 44.5721 35.8782 45.3139 29.1882 45.3139C22.5001 45.3139 16.6536 44.5721 16.595 44.5631C16.5138 44.5528 16.4538 44.5257 16.4332 44.4883C16.412 44.451 16.419 44.3852 16.4513 44.3098C16.5305 44.1242 18.3981 39.7072 18.3981 34.1726C18.3981 28.7051 17.0371 21.3358 16.9791 21.0252C16.8341 20.2493 16.1877 19.7079 15.4073 19.7079C15.2629 19.7079 15.1192 19.7273 14.9774 19.7646L13.7272 20.0998C13.4481 20.1752 13.0357 19.9986 12.8971 19.7434L10.6332 15.5596C10.5088 15.3302 10.5932 15.0054 10.813 14.8642L14.0069 12.813C14.4316 12.5397 15.2397 12.2149 15.7353 12.1189ZM16.2856 39.8451C15.9892 39.8767 15.8635 39.8045 15.6322 39.673C15.3344 39.5029 14.9246 39.2702 14.2331 39.3437C13.5396 39.4159 13.1891 39.7284 12.9326 39.9546C12.7347 40.1306 12.6245 40.2279 12.3294 40.2595C12.0342 40.2904 11.9072 40.2182 11.6759 40.0867C11.527 40.0017 11.3517 39.9024 11.1255 39.8315C11.1326 39.5757 11.1371 39.316 11.1371 39.0511C11.3872 39.191 11.7113 39.3514 12.2043 39.3514C12.2849 39.3514 12.37 39.3463 12.4595 39.3379C13.1523 39.2657 13.5035 38.9538 13.7594 38.727C13.9579 38.5517 14.0674 38.4537 14.3626 38.4221C14.6597 38.3938 14.786 38.4634 15.0167 38.5948C15.3145 38.7643 15.723 38.9944 16.4152 38.9235C16.5228 38.9119 16.6104 38.8874 16.7007 38.8655C16.6414 39.1877 16.5776 39.4964 16.5125 39.7935C16.4487 39.8174 16.3772 39.8348 16.2856 39.8451ZM16.9398 37.3375C16.9236 37.3511 16.903 37.3678 16.8869 37.3801C16.6884 37.556 16.5802 37.6533 16.285 37.6849C15.9885 37.7165 15.8622 37.6443 15.6309 37.5115C15.3331 37.3427 14.9239 37.1113 14.2311 37.1835C13.5377 37.2557 13.1871 37.5682 12.9306 37.7944C12.7321 37.9704 12.6226 38.0677 12.3274 38.0993C12.0323 38.1315 11.9053 38.0587 11.674 37.9266C11.5199 37.8389 11.335 37.7364 11.0978 37.6662C11.0836 37.3891 11.063 37.1087 11.0385 36.8258C11.0456 36.8291 11.0514 36.8323 11.0579 36.8361C11.3169 36.9837 11.6604 37.1783 12.2018 37.1783C12.2823 37.1783 12.3674 37.1738 12.457 37.1648C13.1504 37.0933 13.501 36.7801 13.7568 36.5539C13.9553 36.3779 14.0649 36.2813 14.36 36.2497C14.6565 36.2207 14.7828 36.2896 15.0135 36.4218C15.3112 36.5919 15.7205 36.8245 16.412 36.7511C16.6543 36.7259 16.8521 36.6699 17.0197 36.6003C16.9984 36.8503 16.9707 37.0952 16.9398 37.3375ZM8.21003 23.4077C8.07856 22.9669 7.78405 22.6157 7.37998 22.4166C6.97527 22.2181 6.51706 22.1987 6.08786 22.3644L4.88016 22.8297C4.59918 22.9366 4.18737 22.8097 4.01724 22.5616L1.3273 18.6381C1.17972 18.4229 1.2287 18.0904 1.43235 17.9273L4.39424 15.5525C4.78864 15.2361 5.55812 14.8288 6.04146 14.6806L11.3131 13.063L10.1389 13.8177C9.37455 14.3081 9.10582 15.3566 9.5376 16.1538L11.8009 20.3376C12.2082 21.0896 13.22 21.5285 14.0494 21.3042L15.2996 20.9691C15.5142 20.9111 15.7127 21.0394 15.7533 21.254C15.7669 21.3294 17.1518 28.8211 17.1518 34.1739C17.1518 34.4555 17.144 34.7333 17.1344 35.0091C17.0409 35.0761 16.9597 35.1451 16.8876 35.2095C16.6891 35.3855 16.5808 35.4828 16.2856 35.5137C15.9892 35.5453 15.8635 35.4725 15.6322 35.3404C15.3344 35.1709 14.9252 34.9402 14.2331 35.0111C13.539 35.0845 13.1884 35.3958 12.9326 35.6233C12.7347 35.7986 12.6245 35.8965 12.3294 35.9281C12.0342 35.9597 11.9072 35.8869 11.6759 35.7541C11.4819 35.6439 11.2312 35.5157 10.8942 35.4531C10.2053 30.1519 8.2951 23.6945 8.21003 23.4077ZM10.2968 46.8573C10.2149 46.8554 10.1511 46.8341 10.126 46.7993C10.1009 46.7639 10.1009 46.6982 10.1247 46.6202C10.1659 46.4881 10.8304 44.2995 11.0611 41.1707C11.3202 41.3183 11.6624 41.5116 12.2037 41.5116C12.2842 41.5116 12.3693 41.5071 12.4589 41.4981C13.1517 41.4259 13.5029 41.1134 13.7587 40.8872C13.9572 40.7119 14.0668 40.6139 14.362 40.5823C14.6584 40.5533 14.7847 40.6229 15.0154 40.755C15.2797 40.9052 15.6418 41.0914 16.1986 41.0863C15.7514 42.7554 15.3132 43.7994 15.3041 43.8194C15.116 44.2583 15.1327 44.7274 15.3499 45.1083C15.5671 45.4879 15.9628 45.7399 16.4352 45.7998C16.4725 45.805 18.895 46.1117 22.3995 46.334C15.9557 46.9779 10.3541 46.8599 10.2968 46.8573ZM46.1746 36.1988C45.458 40.873 46.5587 46.2483 46.6051 46.4745C46.6231 46.5622 46.6135 46.635 46.5767 46.6788C46.5394 46.7233 46.4659 46.7394 46.3802 46.7446C46.3357 46.7433 42.9014 46.6531 38.3439 46.1613C40.526 45.9796 41.9116 45.8037 41.9399 45.7998C42.4072 45.7405 42.8048 45.4911 43.0316 45.1154C43.2585 44.7397 43.2939 44.2699 43.1289 43.8291C43.1102 43.7782 41.2239 38.6715 41.2239 34.1739C41.2239 31.7965 41.6055 28.4132 41.9709 25.7026L48.3993 27.2048C47.5834 29.9328 46.5755 33.5804 46.1746 36.1988ZM48.7627 26.01L42.1442 24.462C42.1771 24.2358 42.2087 24.0167 42.2396 23.8066L48.9586 25.3785C48.8961 25.5789 48.831 25.7883 48.7627 26.01ZM56.6482 18.9217L53.1353 23.1177L51.7401 22.4874C51.3238 22.2999 50.8533 22.2948 50.4467 22.472C50.0407 22.6492 49.7255 22.9998 49.5825 23.4322C49.5644 23.4876 49.4742 23.7596 49.3369 24.1875L42.4265 22.5719C42.5522 21.7663 42.6366 21.2669 42.6392 21.2469C42.6759 21.0361 42.8563 20.9163 43.0664 20.9756L43.9687 21.2269C44.7865 21.4563 45.8144 21.042 46.2507 20.3221L48.7782 16.1525C49.2557 15.3631 49.0134 14.3145 48.2368 13.8151L46.7565 12.8639L52.1461 14.8011C52.6223 14.9725 53.3712 15.4159 53.7508 15.7504L56.5967 18.2611C56.7855 18.4281 56.808 18.7297 56.6482 18.9217Z" fill="#040404"/>
</svg>
