<svg width="47" height="48" viewBox="0 0 47 48" fill="none" xmlns="http://www.w3.org/2000/svg">
<path d="M8.99356 6.91882C9.5494 7.7217 10.3523 8.15402 11.2169 8.21578C11.2787 8.21578 11.3404 8.21578 11.3404 8.21578C12.1433 8.21578 12.9462 7.84522 13.5638 7.16586C14.1814 6.48651 14.5519 5.49835 14.6137 4.51019C14.6137 4.38667 14.6137 4.32491 14.6137 4.20139C14.6137 4.20139 16.2195 4.20139 16.7135 4.20139C17.0223 4.20139 17.2076 3.95435 17.2076 3.70731C17.2076 3.46027 16.9606 3.21323 16.7135 3.21323H14.6137C14.5519 2.41036 14.3049 1.66924 13.8726 1.1134C13.3167 0.434041 12.5139 0.00172268 11.6492 0.00172268C9.8582 -0.0600372 8.25244 1.54572 8.25244 3.70731C8.25244 3.89259 8.25244 4.07787 8.25244 4.26315C8.25244 5.18955 8.49948 6.11595 8.99356 6.91882ZM13.6255 4.44843C13.5638 5.25131 13.3167 5.93067 12.8227 6.48651C12.3903 6.98058 11.8345 7.22762 11.2787 7.22762C10.7228 7.22762 10.2288 6.91882 9.79644 6.36298C9.36412 5.80715 9.17884 5.06603 9.2406 4.26315C9.2406 4.26315 9.2406 4.26315 9.2406 4.20139H13.5638C13.6255 4.26315 13.6255 4.32491 13.6255 4.44843Z" fill="#040404"/>
<path d="M41.5409 40.2691L33.3269 43.6659L24.557 22.6058C24.4952 22.4823 24.3717 22.3587 24.2482 22.297L16.1576 17.7267L11.1551 10.5008C10.661 9.82149 9.67284 9.45093 8.86996 9.45093C7.51125 9.45093 6.09077 10.3773 6.09077 12.2301V25.5702C6.09077 25.8173 6.09077 26.1261 6.15253 26.4349L7.82004 35.8841L0.532384 44.407C-0.270494 45.3334 -0.146974 46.6921 0.779423 47.4332C1.21174 47.8038 1.70582 47.9273 2.1999 47.9273C2.8175 47.9273 3.4351 47.6803 3.86741 47.1862L9.85812 40.2073L9.117 37.5516C8.99348 37.1193 9.67284 36.934 9.79636 37.3664C9.79636 37.3664 12.0197 45.7039 12.205 46.2598C12.5756 47.4332 13.6872 48.0508 14.8607 47.742C15.9106 47.4332 16.9605 47.1862 16.9605 47.1862L11.6492 27.2378V18.9619L9.85812 16.368C9.61108 15.9975 10.1669 15.6269 10.414 15.9975L13.2549 20.1354C13.4402 20.3824 13.6255 20.5677 13.8725 20.6912L21.2837 24.9526C21.5925 25.1379 21.9013 25.1997 22.2101 25.1997C22.8277 25.1997 23.3835 24.8909 23.6923 24.3968L30.6712 41.0102C30.3624 40.7014 29.9918 40.4544 29.5595 40.2691C28.6331 39.8985 27.6449 39.8985 26.7186 40.2691C25.7922 40.6396 25.051 41.3808 24.6805 42.3072C24.3099 43.2336 24.3099 44.2217 24.6805 45.1481C25.051 46.0745 25.7922 46.8156 26.7186 47.1862C27.1509 47.3715 27.6449 47.495 28.139 47.495C28.6331 47.495 29.1272 47.3715 29.5595 47.1862C30.4859 46.8156 31.227 46.0745 31.5976 45.1481C31.7829 44.7158 31.8446 44.2835 31.9064 43.8511L32.3387 44.9011C32.4622 45.2716 32.8945 45.3951 33.2651 45.2716L42.0967 41.566C42.4673 41.4425 42.5908 41.0102 42.4673 40.6396C42.282 40.3308 41.8497 40.1456 41.5409 40.2691ZM27.5214 45.2099C27.0891 45.0246 26.7803 44.7158 26.595 44.3452C26.4098 43.9129 26.4098 43.4806 26.595 43.0483C26.7803 42.616 27.0891 42.3072 27.4597 42.1219C27.645 42.0601 27.892 41.9984 28.0773 41.9984C28.2625 41.9984 28.5096 42.0601 28.6949 42.1219C29.1272 42.3072 29.436 42.616 29.6213 42.9865C29.8065 43.4188 29.8065 43.8512 29.6213 44.2835C29.436 44.7158 29.1272 45.0246 28.7566 45.2099C28.3861 45.3951 27.892 45.3951 27.5214 45.2099Z" fill="#040404"/>
<path d="M46.9757 36.6253L41.7261 23.9645C41.6643 23.7793 41.4791 23.7175 41.2938 23.7793L36.106 25.9409L37.0324 28.1642L36.2295 28.473L40.8615 39.528L46.8522 36.9959C46.9757 36.9959 47.0374 36.8106 46.9757 36.6253Z" fill="#040404"/>
<path d="M35.5501 28.7817L34.7472 29.0905L33.8208 26.8672L28.633 29.0288C28.4477 29.0905 28.386 29.2758 28.4477 29.4611L33.6973 42.1219C33.7591 42.3071 34.0061 42.3689 34.1296 42.3071L40.1203 39.775L35.5501 28.7817Z" fill="#040404"/>
</svg>
