<svg width="58" height="57" viewBox="0 0 58 57" fill="none" xmlns="http://www.w3.org/2000/svg">
<path d="M34.4107 21.6716C34.7705 22.0299 35.3703 22.0299 35.7301 21.6716C36.09 21.3134 36.09 20.7164 35.7301 20.3582C31.2321 15.8806 23.8553 15.8806 19.3572 20.3582C17.7379 21.9701 16.7184 23.9403 16.2386 26.0299H13.8996C13.4198 26.0299 13 26.4478 13 26.9254C13 27.403 13.4198 27.8209 13.8996 27.8209H15.9987C15.9987 28.2388 15.9987 28.7164 15.9987 29.1343H13.8996C13.4198 29.1343 13 29.5522 13 30.0299C13 30.5075 13.4198 30.9254 13.8996 30.9254H16.2386C16.7184 33.0149 17.7379 34.9851 19.3572 36.597C21.6362 38.8657 24.575 40 27.5737 40C30.5124 40 33.5111 38.8657 35.7301 36.6567C36.09 36.2985 36.09 35.7015 35.7301 35.3433C35.3703 34.9851 34.7705 34.9851 34.4107 35.3433C30.6323 39.1045 24.395 39.1045 20.6167 35.3433C19.3572 34.0896 18.5776 32.5373 18.0978 30.9254H29.4928C29.9726 30.9254 30.3924 30.5075 30.3924 30.0299C30.3924 29.5522 29.9726 29.1343 29.4928 29.1343H17.7979C17.7979 28.7164 17.7979 28.2388 17.7979 27.8209H29.4928C29.9726 27.8209 30.3924 27.403 30.3924 26.9254C30.3924 26.4478 29.9726 26.0299 29.4928 26.0299H18.0978C18.5176 24.4179 19.2973 22.8657 20.6167 21.6119C24.395 17.9104 30.6323 17.9104 34.4107 21.6716Z" fill="#040404"/>
<path d="M57.3898 13.7546L50.1253 10.8634C49.8201 10.7403 49.5149 10.8019 49.2707 10.9864C49.0265 11.171 48.8434 11.4785 48.9044 11.7861L49.0876 19.6601C49.0876 20.1522 49.5149 20.5828 50.0033 20.5828C50.4916 20.5828 50.9189 20.1522 50.9189 19.5986L50.7969 14.6158C55.7416 22.8589 55.9857 33.3781 51.1631 41.7442C47.6225 47.8957 41.9452 52.3248 35.1081 54.1703C28.271 56.0158 21.1287 55.093 15.0852 51.5866C2.44872 44.2048 -1.94657 27.9032 5.37891 15.1695C8.85851 9.07942 14.5968 4.65031 21.4339 2.80484C28.271 0.959378 35.4134 1.88211 41.4569 5.38849C41.8842 5.63456 42.4946 5.51153 42.7388 5.0194C42.983 4.58879 42.8609 3.97364 42.3726 3.72758C35.9017 0.036645 28.271 -1.00912 20.9455 1.02089C13.6201 2.98939 7.5155 7.72608 3.73067 14.2467C0.00689122 20.7674 -0.969839 28.4568 0.983621 35.8387C2.93708 43.2205 7.6376 49.3721 14.1084 53.186C18.5648 55.7697 23.3874 57 28.21 57C37.9773 57 47.5004 51.8942 52.7503 42.7284C57.8781 33.8087 57.695 22.6128 52.4451 13.8161L56.7183 15.477C57.2066 15.6616 57.7561 15.4155 57.9392 14.9234C58.1223 14.4928 57.8781 14.0007 57.3898 13.7546Z" fill="#040404"/>
</svg>
