<svg width="25" height="25" viewBox="0 0 25 25" fill="none" xmlns="http://www.w3.org/2000/svg">
<path d="M7.49974 20C6.12479 20 5.01233 21.125 5.01233 22.5C5.01233 23.875 6.12479 25 7.49974 25C8.8747 25 9.99966 23.875 9.99966 22.5C9.99966 21.125 8.8747 20 7.49974 20ZM0 0V2.5H2.49991L6.99976 11.9875L5.31232 15.05C5.11232 15.4 4.99983 15.8125 4.99983 16.25C4.99983 17.625 6.12479 18.75 7.49974 18.75H22.4992V16.25H8.02472C7.84973 16.25 7.71224 16.1125 7.71224 15.9375L7.74973 15.7875L8.8747 13.75H18.1869C19.1243 13.75 19.9493 13.2375 20.3743 12.4625L24.8491 4.35C24.9523 4.15923 25.0042 3.94498 24.9997 3.72816C24.9953 3.51135 24.9347 3.29939 24.8239 3.11299C24.7131 2.92659 24.5558 2.77212 24.3674 2.66468C24.1791 2.55724 23.966 2.5005 23.7492 2.5H5.26232L4.08736 0H0ZM19.9993 20C18.6244 20 17.5119 21.125 17.5119 22.5C17.5119 23.875 18.6244 25 19.9993 25C21.3743 25 22.4992 23.875 22.4992 22.5C22.4992 21.125 21.3743 20 19.9993 20Z" fill="#F9F4F5"/>
</svg>
